
        <svg xmlns="http://www.w3.org/2000/svg" xmlns:xlink="http://www.w3.org/1999/xlink" version="1.1" width="3162.313432835821" height="652.8697994823983" viewBox="0 0 3162.313432835821 652.8697994823983">
			
			<g transform="scale(8.115671641791044) translate(10, 10)">
				<defs id="SvgjsDefs3880"/><g id="SvgjsG3881" featureKey="Df7oLJ-0" transform="matrix(0.67161740107935,0,0,0.67161740107935,-3.408458822881114,-3.35808700539675)" fill="#000"><g xmlns="http://www.w3.org/2000/svg"><path d="M81.8,81.8c17.5-17.5,17.5-46.1,0-63.6C73.3,9.7,62,5,50,5S26.7,9.7,18.2,18.2c-17.5,17.5-17.5,46.1,0,63.6   C26.7,90.3,38,95,50,95S73.3,90.3,81.8,81.8z M25.3,25.3C31.9,18.6,40.7,15,50,15s18.1,3.6,24.7,10.3c13.6,13.6,13.6,35.9,0,49.5   C68.1,81.4,59.3,85,50,85s-18.1-3.6-24.7-10.3C11.6,61.1,11.6,38.9,25.3,25.3z"/><rect x="25" y="45" transform="matrix(0.7071 -0.7071 0.7071 0.7071 -20.7107 50)" width="50" height="10"/><rect x="59.1" y="59.1" width="10" height="10"/><rect x="30.9" y="30.9" width="10" height="10"/></g></g><g id="SvgjsG3882" featureKey="Ua4uQk-0" transform="matrix(2.581596796757405,0,0,2.581596796757405,78.19288273467033,-8.611839937729064)" fill="#000"><path d="M8.5 9.6 l3.16 0 l0 10.4 c0 3.16 -3.2 4.12 -5.52 4.12 c-1.1 0 -2.1 -0.18 -2.74 -0.52 l0 -2.58 c0.64 0.34 1.6 0.48 2.74 0.48 c1.86 0 2.36 -0.96 2.36 -1.5 l0 -1.04 c-0.14 0.36 -1.08 1.24 -2.68 1.24 c-2.38 0 -5.12 -1.7 -5.12 -5.42 c0 -3.58 2.74 -5.36 5.12 -5.36 c1.6 0 2.54 0.92 2.68 1.14 l0 -0.96 z M6.28 17.42 c1.3 0 2.36 -0.9 2.36 -2.64 c0 -1.68 -1.06 -2.58 -2.36 -2.58 c-1.36 0 -2.52 0.92 -2.52 2.58 c0 1.72 1.16 2.64 2.52 2.64 z M18.86 9.42 c2.36 0 5.48 1.78 5.48 5.42 c0 3.66 -3.12 5.36 -5.48 5.36 s-5.48 -1.7 -5.48 -5.36 c0 -3.64 3.12 -5.42 5.48 -5.42 z M18.86 12.2 c-1.2 0 -2.42 0.92 -2.42 2.64 c0 1.66 1.22 2.58 2.42 2.58 s2.44 -0.92 2.44 -2.58 c0 -1.72 -1.24 -2.64 -2.44 -2.64 z M29.22 5.859999999999999 l0 14.14 l-3.16 0 l0 -14.14 l3.16 0 z M36.12 8.26 c-0.9 0 -0.88 0.82 -0.88 1.02 l0 0.32 l2.16 0 l0 2.6 l-2.16 0 l0 7.8 l-3.18 0 l0 -7.8 l-1.42 0 l0 -2.6 l1.42 0 l0 -0.32 c0 -3.22 2.42 -3.62 3.68 -3.62 c1 0 1.98 0.22 2.72 0.7 l-1.06 2.18 c-0.58 -0.22 -0.8 -0.28 -1.28 -0.28 z M47.48 5.859999999999999 l3.16 0 l0 5.08 l0 9.06 l-3.16 0 l0 -1.04 c-0.14 0.36 -1.08 1.24 -2.68 1.24 c-2.38 0 -5.12 -1.7 -5.12 -5.42 c0 -3.58 2.74 -5.36 5.12 -5.36 c1.6 0 2.54 0.92 2.68 1.14 l0 -4.7 z M45.26 17.42 c1.3 0 2.36 -0.9 2.36 -2.64 c0 -1.68 -1.06 -2.58 -2.36 -2.58 c-1.36 0 -2.52 0.92 -2.52 2.58 c0 1.72 1.16 2.64 2.52 2.64 z M57.839999999999996 9.42 c2.36 0 5.66 1.78 5 6.48 l-7.26 0 c0.36 1.08 1.3 1.64 2.56 1.64 c1.28 0 1.68 -0.28 2.4 -0.58 l1.74 1.68 c-0.92 0.9 -2.16 1.56 -4.26 1.56 c-2.58 0 -5.66 -1.78 -5.66 -5.36 c0 -3.64 3.12 -5.42 5.48 -5.42 z M57.839999999999996 12.120000000000001 c-0.9 0 -1.82 0.52 -2.22 1.56 l4.42 0 c-0.32 -1.04 -1.3 -1.56 -2.2 -1.56 z M72.12 9.6 l3.16 0 l0 10.4 l-3.16 0 l0 -1.04 c-0.14 0.36 -1.08 1.24 -2.68 1.24 c-2.38 0 -5.12 -1.7 -5.12 -5.42 c0 -3.58 2.74 -5.36 5.12 -5.36 c1.6 0 2.54 0.92 2.68 1.14 l0 -0.96 z M69.89999999999999 17.42 c1.3 0 2.36 -0.9 2.36 -2.64 c0 -1.68 -1.06 -2.58 -2.36 -2.58 c-1.36 0 -2.52 0.92 -2.52 2.58 c0 1.72 1.16 2.64 2.52 2.64 z M80.47999999999999 5.859999999999999 l0 14.14 l-3.16 0 l0 -14.14 l3.16 0 z M87.46 12.879999999999999 c-0.28 -0.72 -0.7 -0.96 -1.16 -0.96 c-0.42 0 -0.84 0.24 -0.84 0.64 c0 0.38 0.24 0.6 0.7 0.76 l1.32 0.46 c1.48 0.54 2.98 1.08 2.98 3.16 c0 2.1 -2.1 3.3 -4.26 3.3 c-1.94 0 -3.76 -1.14 -4.2 -2.96 l2.48 -0.78 c0.26 0.58 0.72 1.24 1.72 1.24 c0.68 0 1.12 -0.44 1.12 -0.84 c0 -0.2 -0.16 -0.46 -0.66 -0.66 l-1.22 -0.44 c-2.08 -0.76 -3.06 -1.82 -3.06 -3.3 c0 -1.94 1.8 -3.08 3.78 -3.08 c2.02 0 3.36 1.1 3.96 2.76 z M93.54 20.1 c-0.96 0 -1.78 -0.82 -1.78 -1.78 c0 -0.98 0.82 -1.8 1.78 -1.8 c0.98 0 1.8 0.82 1.8 1.8 c0 0.96 -0.82 1.78 -1.8 1.78 z M100.22 5.859999999999999 l0 2.66 l-3.16 0 l0 -2.66 l3.16 0 z M100.22 9.6 l0 10.4 l-3.16 0 l0 -10.4 l3.16 0 z M107.42000000000002 9.42 c2.36 0 5.48 1.78 5.48 5.42 c0 3.66 -3.12 5.36 -5.48 5.36 s-5.48 -1.7 -5.48 -5.36 c0 -3.64 3.12 -5.42 5.48 -5.42 z M107.42000000000002 12.2 c-1.2 0 -2.42 0.92 -2.42 2.64 c0 1.66 1.22 2.58 2.42 2.58 s2.44 -0.92 2.44 -2.58 c0 -1.72 -1.24 -2.64 -2.44 -2.64 z"/></g>
			</g>
		</svg>
	